# xmcd
#
# Track frame offsets: 
#        182
#        18237
#        50695
#        75910
#        97200
#        117137
#        155472
#        178122
#
# Disc length: 2710 seconds
#
# Revision: 1
# Processed by: cddbd v1.5.2PL0 Copyright (c) Steve Scherf et al.
# Submitted via: ExactAudioCopy v1.3
#
DISCID=5b0a9408
DTITLE=Eric Clapton - Just One Night cd1
DYEAR=1980
DGENRE=Blues
TTITLE0=Tulsa Time
TTITLE1=Early In The Morning
TTITLE2=Lay Down Sally
TTITLE3=Wonderful Tonight
TTITLE4=If I Don't Be There By Morning
TTITLE5=Worried Life Blues
TTITLE6=All Our Past Time
TTITLE7=After Midnight
EXTD=
EXTT0=
EXTT1=
EXTT2=
EXTT3=
EXTT4=
EXTT5=
EXTT6=
EXTT7=
PLAYORDER=
